<svg class="svg-icon" style="width: 1em; height: 1em;vertical-align: middle;fill: currentColor;overflow: hidden;" viewBox="0 0 1024 1024" version="1.1" xmlns="http://www.w3.org/2000/svg"><path d="M273.09 791.4h559.77L846 733.66H259.92z" fill="#00E7FF" /><path d="M223.62 577h655.63L897 492.5H203.93z" fill="#FFE600" /><path d="M256.38 720.13h593.17l25.62-126.75H226.75z" fill="#EA3457" /><path d="M627.36 382.52a15 15 0 0 1-15-15V269c0-29.15-10.46-53.76-30.26-71.15-19-16.71-45.92-25.91-75.75-25.91h-1c-2.6-0.17-5.24-0.24-7.84-0.21A95.81 95.81 0 0 0 403 268.76v98.76a15 15 0 0 1-30 0v-98.46a125.84 125.84 0 0 1 124.09-127.41c3.24 0 6.52 0 9.77 0.25 36.92 0.11 70.66 11.95 95 33.37 26.47 23.26 40.46 55.66 40.46 93.69v98.56a15 15 0 0 1-14.96 15z" fill="#602F75" /><path d="M663 887.54h-0.28l-21.5-0.4a15 15 0 1 1 0.55-30l21.51 0.4a15 15 0 0 1-0.28 30z" fill="#602F75" /><path d="M715.25 888.32h-1a15 15 0 0 1 0.17-30h0.85a58.92 58.92 0 0 0 57.2-45.75l91.68-407.06A58.63 58.63 0 0 0 807 334H221.44a58.62 58.62 0 0 0-57.14 71.74l92.36 402.42a58.45 58.45 0 0 0 56.46 45.51l277.51 2.46a15 15 0 0 1-0.13 30h-0.13l-277.56-2.46a88.38 88.38 0 0 1-85.39-68.8l-92.36-402.42A88.62 88.62 0 0 1 221.44 304H807a88.63 88.63 0 0 1 86.46 108.1l-91.73 407.06a88.65 88.65 0 0 1-86.48 69.16z" fill="#602F75" /><path d="M387.5 434a40.5 40.5 0 1 1 40.5-40.5 40.55 40.55 0 0 1-40.5 40.5z m0-51a10.5 10.5 0 1 0 10.5 10.5 10.51 10.51 0 0 0-10.5-10.5zM627.5 434a40.5 40.5 0 1 1 40.5-40.5 40.55 40.55 0 0 1-40.5 40.5z m0-51a10.5 10.5 0 1 0 10.5 10.5 10.51 10.51 0 0 0-10.5-10.5z" fill="#602F75" /></svg>